<svg xmlns="http://www.w3.org/2000/svg" viewBox="0 0 1200 720" fill="none">
  <defs>
    <linearGradient id="bgGrad" x1="0" y1="0" x2="0" y2="1">
      <stop offset="0%" stop-color="#0a0a0a"/>
      <stop offset="100%" stop-color="#111111"/>
    </linearGradient>
    <linearGradient id="chartBlue" x1="0" y1="0" x2="0" y2="1">
      <stop offset="0%" stop-color="#4f8ef7" stop-opacity="0.9"/>
      <stop offset="100%" stop-color="#4f8ef7" stop-opacity="0.1"/>
    </linearGradient>
    <linearGradient id="chartGreen" x1="0" y1="0" x2="0" y2="1">
      <stop offset="0%" stop-color="#22c55e" stop-opacity="0.8"/>
      <stop offset="100%" stop-color="#22c55e" stop-opacity="0.05"/>
    </linearGradient>
    <linearGradient id="chartPurple" x1="0" y1="0" x2="0" y2="1">
      <stop offset="0%" stop-color="#a855f7" stop-opacity="0.8"/>
      <stop offset="100%" stop-color="#a855f7" stop-opacity="0.05"/>
    </linearGradient>
    <linearGradient id="sparkBlue" x1="0" y1="0" x2="1" y2="0">
      <stop offset="0%" stop-color="#4f8ef7" stop-opacity="0"/>
      <stop offset="100%" stop-color="#4f8ef7"/>
    </linearGradient>
    <linearGradient id="sparkGreen" x1="0" y1="0" x2="1" y2="0">
      <stop offset="0%" stop-color="#22c55e" stop-opacity="0"/>
      <stop offset="100%" stop-color="#22c55e"/>
    </linearGradient>
    <linearGradient id="sparkRed" x1="0" y1="0" x2="1" y2="0">
      <stop offset="0%" stop-color="#ef4444" stop-opacity="0"/>
      <stop offset="100%" stop-color="#ef4444"/>
    </linearGradient>
    <clipPath id="dashClip">
      <rect width="1200" height="720" rx="16"/>
    </clipPath>
  </defs>

  <!-- Dashboard background -->
  <rect width="1200" height="720" rx="16" fill="url(#bgGrad)"/>

  <!-- Sidebar -->
  <rect x="0" y="0" width="220" height="720" fill="#0d0d0d"/>
  <rect x="220" y="0" width="1" height="720" fill="#222"/>

  <!-- Sidebar logo -->
  <circle cx="38" cy="40" r="12" fill="#4f8ef7" opacity="0.9"/>
  <text x="60" y="46" font-family="Inter,sans-serif" font-size="15" font-weight="600" fill="white">Neuralyn</text>

  <!-- Sidebar nav items -->
  <rect x="12" y="80" width="196" height="36" rx="8" fill="#1a1a1a"/>
  <rect x="24" y="92" width="14" height="14" rx="3" fill="#4f8ef7" opacity="0.9"/>
  <text x="48" y="103" font-family="Inter,sans-serif" font-size="13" font-weight="500" fill="white">Dashboard</text>

  <rect x="24" y="132" width="14" height="14" rx="3" fill="#333" opacity="0.7"/>
  <text x="48" y="143" font-family="Inter,sans-serif" font-size="13" font-weight="400" fill="#666">Analytics</text>

  <rect x="24" y="166" width="14" height="14" rx="3" fill="#333" opacity="0.7"/>
  <text x="48" y="177" font-family="Inter,sans-serif" font-size="13" font-weight="400" fill="#666">Reports</text>

  <rect x="24" y="200" width="14" height="14" rx="3" fill="#333" opacity="0.7"/>
  <text x="48" y="211" font-family="Inter,sans-serif" font-size="13" font-weight="400" fill="#666">Goals</text>

  <rect x="24" y="234" width="14" height="14" rx="3" fill="#333" opacity="0.7"/>
  <text x="48" y="245" font-family="Inter,sans-serif" font-size="13" font-weight="400" fill="#666">Teams</text>

  <rect x="24" y="268" width="14" height="14" rx="3" fill="#333" opacity="0.7"/>
  <text x="48" y="279" font-family="Inter,sans-serif" font-size="13" font-weight="400" fill="#666">Settings</text>

  <!-- Avatar at bottom of sidebar -->
  <circle cx="38" cy="686" r="16" fill="#1e293b"/>
  <circle cx="38" cy="680" r="7" fill="#d4a574"/>
  <ellipse cx="38" cy="696" rx="10" ry="7" fill="#1e293b"/>
  <text x="62" y="684" font-family="Inter,sans-serif" font-size="12" font-weight="600" fill="white">Brooklyn S.</text>
  <text x="62" y="698" font-family="Inter,sans-serif" font-size="11" fill="#666">Product Manager</text>

  <!-- Main content area -->
  <!-- Top bar -->
  <rect x="220" y="0" width="980" height="60" fill="#0d0d0d"/>
  <rect x="220" y="60" width="980" height="1" fill="#1a1a1a"/>
  <text x="248" y="38" font-family="Inter,sans-serif" font-size="18" font-weight="600" fill="white">Overview</text>

  <!-- Search bar -->
  <rect x="800" y="16" width="200" height="30" rx="8" fill="#1a1a1a"/>
  <text x="820" y="35" font-family="Inter,sans-serif" font-size="12" fill="#555">Search...</text>

  <!-- Notification dot -->
  <circle cx="1050" cy="30" r="14" fill="#1a1a1a"/>
  <rect x="1043" y="23" width="14" height="14" rx="2" fill="#333" opacity="0.5"/>
  <circle cx="1053" cy="26" r="3" fill="#ef4444"/>

  <!-- KPI Cards row -->
  <!-- Card 1: Total Revenue -->
  <rect x="240" y="80" width="210" height="110" rx="12" fill="#111"/>
  <rect x="240" y="80" width="210" height="110" rx="12" stroke="#222" stroke-width="1"/>
  <text x="260" y="108" font-family="Inter,sans-serif" font-size="12" fill="#666">Total Revenue</text>
  <text x="260" y="138" font-family="Inter,sans-serif" font-size="26" font-weight="700" fill="white">$284.5K</text>
  <rect x="260" y="152" width="44" height="20" rx="4" fill="#22c55e" fill-opacity="0.15"/>
  <text x="268" y="166" font-family="Inter,sans-serif" font-size="11" fill="#22c55e">↑ 12.4%</text>
  <!-- Sparkline -->
  <polyline points="360,168 370,155 382,160 394,145 406,148 420,138 432,142" stroke="url(#sparkBlue)" stroke-width="2" fill="none" stroke-linecap="round"/>

  <!-- Card 2: Active Users -->
  <rect x="466" y="80" width="210" height="110" rx="12" fill="#111"/>
  <rect x="466" y="80" width="210" height="110" rx="12" stroke="#222" stroke-width="1"/>
  <text x="486" y="108" font-family="Inter,sans-serif" font-size="12" fill="#666">Active Users</text>
  <text x="486" y="138" font-family="Inter,sans-serif" font-size="26" font-weight="700" fill="white">48,291</text>
  <rect x="486" y="152" width="44" height="20" rx="4" fill="#22c55e" fill-opacity="0.15"/>
  <text x="494" y="166" font-family="Inter,sans-serif" font-size="11" fill="#22c55e">↑ 8.1%</text>
  <!-- Sparkline -->
  <polyline points="584,165 596,158 608,162 620,150 632,155 644,142 656,148" stroke="url(#sparkGreen)" stroke-width="2" fill="none" stroke-linecap="round"/>

  <!-- Card 3: Conversion Rate -->
  <rect x="692" y="80" width="210" height="110" rx="12" fill="#111"/>
  <rect x="692" y="80" width="210" height="110" rx="12" stroke="#222" stroke-width="1"/>
  <text x="712" y="108" font-family="Inter,sans-serif" font-size="12" fill="#666">Conversion Rate</text>
  <text x="712" y="138" font-family="Inter,sans-serif" font-size="26" font-weight="700" fill="white">3.68%</text>
  <rect x="712" y="152" width="44" height="20" rx="4" fill="#ef4444" fill-opacity="0.15"/>
  <text x="718" y="166" font-family="Inter,sans-serif" font-size="11" fill="#ef4444">↓ 0.4%</text>
  <!-- Sparkline -->
  <polyline points="810,145 822,152 834,149 846,158 858,154 870,161 882,158" stroke="url(#sparkRed)" stroke-width="2" fill="none" stroke-linecap="round"/>

  <!-- Card 4: Avg Session -->
  <rect x="918" y="80" width="210" height="110" rx="12" fill="#111"/>
  <rect x="918" y="80" width="210" height="110" rx="12" stroke="#222" stroke-width="1"/>
  <text x="938" y="108" font-family="Inter,sans-serif" font-size="12" fill="#666">Avg Session</text>
  <text x="938" y="138" font-family="Inter,sans-serif" font-size="26" font-weight="700" fill="white">4m 32s</text>
  <rect x="938" y="152" width="44" height="20" rx="4" fill="#22c55e" fill-opacity="0.15"/>
  <text x="946" y="166" font-family="Inter,sans-serif" font-size="11" fill="#22c55e">↑ 5.2%</text>
  <!-- Sparkline -->
  <polyline points="1036,160 1048,152 1060,155 1072,143 1084,148 1096,138 1108,142" stroke="url(#sparkBlue)" stroke-width="2" fill="none" stroke-linecap="round"/>

  <!-- Main chart area -->
  <rect x="240" y="208" width="580" height="300" rx="12" fill="#111"/>
  <rect x="240" y="208" width="580" height="300" rx="12" stroke="#222" stroke-width="1"/>
  <text x="260" y="234" font-family="Inter,sans-serif" font-size="14" font-weight="600" fill="white">Revenue Over Time</text>
  <text x="260" y="252" font-family="Inter,sans-serif" font-size="11" fill="#555">Last 12 months</text>

  <!-- Chart legend -->
  <circle cx="680" cy="228" r="4" fill="#4f8ef7"/>
  <text x="690" y="232" font-family="Inter,sans-serif" font-size="11" fill="#666">Revenue</text>
  <circle cx="740" cy="228" r="4" fill="#22c55e"/>
  <text x="750" y="232" font-family="Inter,sans-serif" font-size="11" fill="#666">Target</text>

  <!-- Y-axis labels -->
  <text x="252" y="288" font-family="Inter,sans-serif" font-size="10" fill="#444">400K</text>
  <text x="252" y="328" font-family="Inter,sans-serif" font-size="10" fill="#444">300K</text>
  <text x="252" y="368" font-family="Inter,sans-serif" font-size="10" fill="#444">200K</text>
  <text x="252" y="408" font-family="Inter,sans-serif" font-size="10" fill="#444">100K</text>
  <text x="260" y="448" font-family="Inter,sans-serif" font-size="10" fill="#444">0</text>

  <!-- Horizontal grid lines -->
  <line x1="282" y1="282" x2="800" y2="282" stroke="#1c1c1c" stroke-width="1"/>
  <line x1="282" y1="322" x2="800" y2="322" stroke="#1c1c1c" stroke-width="1"/>
  <line x1="282" y1="362" x2="800" y2="362" stroke="#1c1c1c" stroke-width="1"/>
  <line x1="282" y1="402" x2="800" y2="402" stroke="#1c1c1c" stroke-width="1"/>
  <line x1="282" y1="442" x2="800" y2="442" stroke="#222" stroke-width="1"/>

  <!-- X-axis labels -->
  <text x="290" y="460" font-family="Inter,sans-serif" font-size="10" fill="#444">Jan</text>
  <text x="330" y="460" font-family="Inter,sans-serif" font-size="10" fill="#444">Feb</text>
  <text x="370" y="460" font-family="Inter,sans-serif" font-size="10" fill="#444">Mar</text>
  <text x="410" y="460" font-family="Inter,sans-serif" font-size="10" fill="#444">Apr</text>
  <text x="450" y="460" font-family="Inter,sans-serif" font-size="10" fill="#444">May</text>
  <text x="490" y="460" font-family="Inter,sans-serif" font-size="10" fill="#444">Jun</text>
  <text x="530" y="460" font-family="Inter,sans-serif" font-size="10" fill="#444">Jul</text>
  <text x="570" y="460" font-family="Inter,sans-serif" font-size="10" fill="#444">Aug</text>
  <text x="610" y="460" font-family="Inter,sans-serif" font-size="10" fill="#444">Sep</text>
  <text x="650" y="460" font-family="Inter,sans-serif" font-size="10" fill="#444">Oct</text>
  <text x="690" y="460" font-family="Inter,sans-serif" font-size="10" fill="#444">Nov</text>
  <text x="730" y="460" font-family="Inter,sans-serif" font-size="10" fill="#444">Dec</text>

  <!-- Area chart fill (Revenue) -->
  <path d="M290,420 L330,390 L370,380 L410,360 L450,330 L490,310 L530,325 L570,295 L610,285 L650,300 L690,270 L730,260 L770,258 L800,442 Z"
    fill="url(#chartBlue)" opacity="0.4"/>

  <!-- Revenue line -->
  <polyline points="290,420 330,390 370,380 410,360 450,330 490,310 530,325 570,295 610,285 650,300 690,270 730,260 770,258"
    stroke="#4f8ef7" stroke-width="2.5" fill="none" stroke-linecap="round" stroke-linejoin="round"/>

  <!-- Target line (dashed) -->
  <polyline points="290,410 330,398 370,375 410,355 450,340 490,318 530,315 570,298 610,280 650,292 690,275 730,265 770,255"
    stroke="#22c55e" stroke-width="1.5" fill="none" stroke-dasharray="5 4" stroke-linecap="round" opacity="0.7"/>

  <!-- Data points on revenue line -->
  <circle cx="290" cy="420" r="3.5" fill="#4f8ef7" stroke="#0d0d0d" stroke-width="1.5"/>
  <circle cx="370" cy="380" r="3.5" fill="#4f8ef7" stroke="#0d0d0d" stroke-width="1.5"/>
  <circle cx="450" cy="330" r="3.5" fill="#4f8ef7" stroke="#0d0d0d" stroke-width="1.5"/>
  <circle cx="530" cy="325" r="3.5" fill="#4f8ef7" stroke="#0d0d0d" stroke-width="1.5"/>
  <circle cx="610" cy="285" r="3.5" fill="#4f8ef7" stroke="#0d0d0d" stroke-width="1.5"/>
  <circle cx="690" cy="270" r="3.5" fill="#4f8ef7" stroke="#0d0d0d" stroke-width="1.5"/>
  <circle cx="770" cy="258" r="4.5" fill="white" stroke="#4f8ef7" stroke-width="2"/>

  <!-- Tooltip at last point -->
  <rect x="740" y="232" width="90" height="38" rx="7" fill="#1e2a3a"/>
  <text x="785" y="249" font-family="Inter,sans-serif" font-size="11" font-weight="600" fill="white" text-anchor="middle">$284.5K</text>
  <text x="785" y="263" font-family="Inter,sans-serif" font-size="10" fill="#4f8ef7" text-anchor="middle">Dec 2025</text>
  <line x1="785" y1="270" x2="785" y2="258" stroke="#4f8ef7" stroke-width="1" stroke-dasharray="3 2"/>

  <!-- Right side: Donut chart + table -->
  <!-- Top sources card -->
  <rect x="836" y="208" width="292" height="194" rx="12" fill="#111"/>
  <rect x="836" y="208" width="292" height="194" rx="12" stroke="#222" stroke-width="1"/>
  <text x="856" y="234" font-family="Inter,sans-serif" font-size="14" font-weight="600" fill="white">Traffic Sources</text>

  <!-- Donut chart -->
  <!-- Background circle -->
  <circle cx="940" cy="318" r="55" stroke="#1c1c1c" stroke-width="22" fill="none"/>
  <!-- Segments -->
  <!-- Organic: 40% -->
  <circle cx="940" cy="318" r="55" stroke="#4f8ef7" stroke-width="22" fill="none"
    stroke-dasharray="138 207" stroke-dashoffset="0" transform="rotate(-90 940 318)"/>
  <!-- Paid: 28% -->
  <circle cx="940" cy="318" r="55" stroke="#a855f7" stroke-width="22" fill="none"
    stroke-dasharray="97 248" stroke-dashoffset="-138" transform="rotate(-90 940 318)"/>
  <!-- Social: 20% -->
  <circle cx="940" cy="318" r="55" stroke="#22c55e" stroke-width="22" fill="none"
    stroke-dasharray="69 276" stroke-dashoffset="-235" transform="rotate(-90 940 318)"/>
  <!-- Other: 12% -->
  <circle cx="940" cy="318" r="55" stroke="#f59e0b" stroke-width="22" fill="none"
    stroke-dasharray="41 304" stroke-dashoffset="-304" transform="rotate(-90 940 318)"/>
  <!-- Center text -->
  <text x="940" y="312" font-family="Inter,sans-serif" font-size="20" font-weight="700" fill="white" text-anchor="middle">48.3K</text>
  <text x="940" y="328" font-family="Inter,sans-serif" font-size="10" fill="#666" text-anchor="middle">total visits</text>

  <!-- Legend -->
  <circle cx="1020" cy="265" r="5" fill="#4f8ef7"/>
  <text x="1032" y="269" font-family="Inter,sans-serif" font-size="11" fill="#aaa">Organic 40%</text>
  <circle cx="1020" cy="285" r="5" fill="#a855f7"/>
  <text x="1032" y="289" font-family="Inter,sans-serif" font-size="11" fill="#aaa">Paid 28%</text>
  <circle cx="1020" cy="305" r="5" fill="#22c55e"/>
  <text x="1032" y="309" font-family="Inter,sans-serif" font-size="11" fill="#aaa">Social 20%</text>
  <circle cx="1020" cy="325" r="5" fill="#f59e0b"/>
  <text x="1032" y="329" font-family="Inter,sans-serif" font-size="11" fill="#aaa">Other 12%</text>

  <!-- Goals progress card -->
  <rect x="836" y="416" width="292" height="92" rx="12" fill="#111"/>
  <rect x="836" y="416" width="292" height="92" rx="12" stroke="#222" stroke-width="1"/>
  <text x="856" y="440" font-family="Inter,sans-serif" font-size="14" font-weight="600" fill="white">Q1 Goals</text>

  <!-- Progress bars -->
  <text x="856" y="462" font-family="Inter,sans-serif" font-size="11" fill="#666">Revenue target</text>
  <rect x="856" y="466" width="252" height="6" rx="3" fill="#1c1c1c"/>
  <rect x="856" y="466" width="178" height="6" rx="3" fill="#4f8ef7"/>
  <text x="1100" y="472" font-family="Inter,sans-serif" font-size="10" fill="#4f8ef7" text-anchor="end">71%</text>

  <text x="856" y="486" font-family="Inter,sans-serif" font-size="11" fill="#666">User growth</text>
  <rect x="856" y="490" width="252" height="6" rx="3" fill="#1c1c1c"/>
  <rect x="856" y="490" width="214" height="6" rx="3" fill="#22c55e"/>
  <text x="1100" y="496" font-family="Inter,sans-serif" font-size="10" fill="#22c55e" text-anchor="end">85%</text>

  <!-- Recent Activity table -->
  <rect x="240" y="524" width="580" height="172" rx="12" fill="#111"/>
  <rect x="240" y="524" width="580" height="172" rx="12" stroke="#222" stroke-width="1"/>
  <text x="260" y="549" font-family="Inter,sans-serif" font-size="14" font-weight="600" fill="white">Recent Activity</text>

  <!-- Table header -->
  <rect x="240" y="558" width="580" height="1" fill="#1c1c1c"/>
  <text x="260" y="574" font-family="Inter,sans-serif" font-size="11" fill="#555">USER</text>
  <text x="440" y="574" font-family="Inter,sans-serif" font-size="11" fill="#555">ACTION</text>
  <text x="620" y="574" font-family="Inter,sans-serif" font-size="11" fill="#555" text-anchor="end">TIME</text>
  <rect x="240" y="578" width="580" height="1" fill="#1c1c1c"/>

  <!-- Row 1 -->
  <circle cx="268" cy="598" r="10" fill="#1e2a3a"/>
  <text x="268" y="602" font-family="Inter,sans-serif" font-size="9" fill="#4f8ef7" text-anchor="middle">JD</text>
  <text x="286" y="601" font-family="Inter,sans-serif" font-size="12" font-weight="500" fill="white">James Davis</text>
  <text x="440" y="601" font-family="Inter,sans-serif" font-size="12" fill="#aaa">Exported report</text>
  <text x="620" y="601" font-family="Inter,sans-serif" font-size="11" fill="#555" text-anchor="end">2m ago</text>
  <rect x="240" y="608" width="580" height="1" fill="#161616"/>

  <!-- Row 2 -->
  <circle cx="268" cy="628" r="10" fill="#1e3a2a"/>
  <text x="268" y="632" font-family="Inter,sans-serif" font-size="9" fill="#22c55e" text-anchor="middle">AL</text>
  <text x="286" y="631" font-family="Inter,sans-serif" font-size="12" font-weight="500" fill="white">Aria Lee</text>
  <text x="440" y="631" font-family="Inter,sans-serif" font-size="12" fill="#aaa">Updated dashboard</text>
  <text x="620" y="631" font-family="Inter,sans-serif" font-size="11" fill="#555" text-anchor="end">14m ago</text>
  <rect x="240" y="638" width="580" height="1" fill="#161616"/>

  <!-- Row 3 -->
  <circle cx="268" cy="658" r="10" fill="#2a1e3a"/>
  <text x="268" y="662" font-family="Inter,sans-serif" font-size="9" fill="#a855f7" text-anchor="middle">MK</text>
  <text x="286" y="661" font-family="Inter,sans-serif" font-size="12" font-weight="500" fill="white">Marcus Kim</text>
  <text x="440" y="661" font-family="Inter,sans-serif" font-size="12" fill="#aaa">Set new goal</text>
  <text x="620" y="661" font-family="Inter,sans-serif" font-size="11" fill="#555" text-anchor="end">1h ago</text>
  <rect x="240" y="668" width="580" height="1" fill="#161616"/>

  <!-- Row 4 -->
  <circle cx="268" cy="688" r="10" fill="#3a2e1e"/>
  <text x="268" y="692" font-family="Inter,sans-serif" font-size="9" fill="#f59e0b" text-anchor="middle">SP</text>
  <text x="286" y="691" font-family="Inter,sans-serif" font-size="12" font-weight="500" fill="white">Sofia Park</text>
  <text x="440" y="691" font-family="Inter,sans-serif" font-size="12" fill="#aaa">Invited team member</text>
  <text x="620" y="691" font-family="Inter,sans-serif" font-size="11" fill="#555" text-anchor="end">3h ago</text>

  <!-- Mini bar chart bottom right -->
  <rect x="836" y="524" width="292" height="172" rx="12" fill="#111"/>
  <rect x="836" y="524" width="292" height="172" rx="12" stroke="#222" stroke-width="1"/>
  <text x="856" y="549" font-family="Inter,sans-serif" font-size="14" font-weight="600" fill="white">Weekly Sessions</text>
  <text x="856" y="563" font-family="Inter,sans-serif" font-size="10" fill="#555">Mon – Sun</text>

  <!-- Bar chart -->
  <!-- Mon -->
  <rect x="862" y="640" width="22" height="52" rx="4" fill="#1c1c1c"/>
  <rect x="862" y="658" width="22" height="34" rx="4" fill="#4f8ef7" opacity="0.7"/>
  <text x="873" y="656" font-family="Inter,sans-serif" font-size="9" fill="#555" text-anchor="middle">M</text>

  <!-- Tue -->
  <rect x="894" y="640" width="22" height="52" rx="4" fill="#1c1c1c"/>
  <rect x="894" y="648" width="22" height="44" rx="4" fill="#4f8ef7" opacity="0.8"/>
  <text x="905" y="646" font-family="Inter,sans-serif" font-size="9" fill="#555" text-anchor="middle">T</text>

  <!-- Wed -->
  <rect x="926" y="640" width="22" height="52" rx="4" fill="#1c1c1c"/>
  <rect x="926" y="650" width="22" height="42" rx="4" fill="#4f8ef7" opacity="0.75"/>
  <text x="937" y="648" font-family="Inter,sans-serif" font-size="9" fill="#555" text-anchor="middle">W</text>

  <!-- Thu -->
  <rect x="958" y="640" width="22" height="52" rx="4" fill="#1c1c1c"/>
  <rect x="958" y="643" width="22" height="49" rx="4" fill="#4f8ef7"/>
  <text x="969" y="641" font-family="Inter,sans-serif" font-size="9" fill="#4f8ef7" text-anchor="middle">T</text>

  <!-- Fri -->
  <rect x="990" y="640" width="22" height="52" rx="4" fill="#1c1c1c"/>
  <rect x="990" y="655" width="22" height="37" rx="4" fill="#4f8ef7" opacity="0.65"/>
  <text x="1001" y="653" font-family="Inter,sans-serif" font-size="9" fill="#555" text-anchor="middle">F</text>

  <!-- Sat -->
  <rect x="1022" y="640" width="22" height="52" rx="4" fill="#1c1c1c"/>
  <rect x="1022" y="665" width="22" height="27" rx="4" fill="#4f8ef7" opacity="0.4"/>
  <text x="1033" y="663" font-family="Inter,sans-serif" font-size="9" fill="#555" text-anchor="middle">S</text>

  <!-- Sun -->
  <rect x="1054" y="640" width="22" height="52" rx="4" fill="#1c1c1c"/>
  <rect x="1054" y="669" width="22" height="23" rx="4" fill="#4f8ef7" opacity="0.3"/>
  <text x="1065" y="667" font-family="Inter,sans-serif" font-size="9" fill="#555" text-anchor="middle">S</text>

  <!-- X labels bottom -->
  <text x="873" y="702" font-family="Inter,sans-serif" font-size="9" fill="#444" text-anchor="middle">2.1K</text>
  <text x="905" y="702" font-family="Inter,sans-serif" font-size="9" fill="#444" text-anchor="middle">2.8K</text>
  <text x="937" y="702" font-family="Inter,sans-serif" font-size="9" fill="#444" text-anchor="middle">2.6K</text>
  <text x="969" y="702" font-family="Inter,sans-serif" font-size="9" fill="#4f8ef7" text-anchor="middle">3.1K</text>
  <text x="1001" y="702" font-family="Inter,sans-serif" font-size="9" fill="#444" text-anchor="middle">2.3K</text>
  <text x="1033" y="702" font-family="Inter,sans-serif" font-size="9" fill="#444" text-anchor="middle">1.7K</text>
  <text x="1065" y="702" font-family="Inter,sans-serif" font-size="9" fill="#444" text-anchor="middle">1.4K</text>

  <!-- Overall subtle vignette overlay -->
  <rect width="1200" height="720" rx="16" fill="url(#bgGrad)" opacity="0.05"/>
</svg>
